<svg width="252" height="252" viewBox="0 0 252 252" fill="none" xmlns="http://www.w3.org/2000/svg">
<path d="M126 251C195.036 251 251 226.376 251 196C251 165.624 195.036 141 126 141C56.9644 141 1 165.624 1 196C1 226.376 56.9644 251 126 251Z" fill="white"/>
<path d="M126 71C56.9644 71 1 95.6243 1 126V196C1 165.624 56.9644 141 126 141C195.036 141 251 165.624 251 196V126C251 95.6243 195.036 71 126 71Z" fill="white"/>
<path d="M126 1C56.9644 1 1 25.6243 1 56V126C1 95.6243 56.9644 71 126 71C195.036 71 251 95.6243 251 126V56C251 25.6243 195.036 1 126 1Z" fill="white"/>
<path d="M251 126V56C251 25.6243 195.036 1 126 1C56.9644 1 1 25.6243 1 56V126M251 126C251 95.6243 195.036 71 126 71C56.9644 71 1 95.6243 1 126M251 126V196M1 126V196M251 196C251 226.376 195.036 251 126 251C56.9644 251 1 226.376 1 196M251 196C251 165.624 195.036 141 126 141C56.9644 141 1 165.624 1 196" stroke="#D1D5DB" stroke-width="2"/>
</svg>
